<?xml version="1.0" encoding="UTF-8" standalone="no"?>
<!DOCTYPE svg PUBLIC "-//W3C//DTD SVG 1.0//EN" "http://www.w3.org/TR/2001/PR-SVG-20010719/DTD/svg10.dtd">
<svg width="155mm" height="165mm" viewBox="-1 -1 602 642" xmlns="http://www.w3.org/2000/svg" xmlns:xlink="http://www.w3.org/1999/xlink">
  <!-- Copyright (C) 2020-2021 Rudy Matela -->
  <title>How Udge works</title>
  <desc>How Udge works.  Copyright (C) 2020-2021 Rudy Matela</desc>
  <g>
    <line style="fill: none; fill-opacity:0; stroke-width: 1; stroke: #004422" x1="457.715" y1="359.551" x2="496.553" y2="342.906"/>
    <polyline style="fill: none; fill-opacity:0; stroke-width: 1; stroke: #004422" points="490.359,351 497.581,342.465 486.42,341.809 "/>
  </g>
  <g>
    <rect style="fill: #ffffff" x="360" y="40" width="100" height="40"/>
    <rect style="fill: none; fill-opacity:0; stroke-width: 1; stroke: #002244" x="360" y="40" width="100" height="40"/>
  </g>
  <g>
    <rect style="fill: #ffffff" x="200" y="0" width="120" height="40"/>
    <rect style="fill: none; fill-opacity:0; stroke-width: 1; stroke: #004422" x="200" y="0" width="120" height="40"/>
  </g>
  <text font-size="12.8" style="fill: #004422;text-anchor:middle;font-family:monospace;font-style:normal;font-weight:normal" x="260" y="24.4313">
    <tspan x="260" y="24.4313">*udge-add-user*</tspan>
  </text>
  <text font-size="12.8" style="fill: #003366;text-anchor:middle;font-family:monospace;font-style:normal;font-weight:normal" x="410" y="56.4312">
    <tspan x="410" y="56.4312">/var/lib/udge</tspan>
    <tspan x="410" y="72.4312">/users/</tspan>
  </text>
  <g>
    <rect style="fill: #ffffff" x="40" y="0" width="120" height="40"/>
    <rect style="fill: none; fill-opacity:0; stroke-width: 1; stroke: #004422" x="40" y="0" width="120" height="40"/>
  </g>
  <text font-size="12.8" style="fill: #004422;text-anchor:middle;font-family:monospace;font-style:normal;font-weight:normal" x="100" y="16.4312">
    <tspan x="100" y="16.4312">cgi-bin/</tspan>
    <tspan x="100" y="32.4312">*udge-new-user*</tspan>
  </text>
  <g>
    <line style="fill: none; fill-opacity:0; stroke-width: 1; stroke: #004422" x1="160.488" y1="20" x2="193.276" y2="20"/>
    <polyline style="fill: none; fill-opacity:0; stroke-width: 1; stroke: #004422" points="184.394,25 194.394,20 184.394,15 "/>
  </g>
  <g>
    <line style="fill: none; fill-opacity:0; stroke-width: 1; stroke: #004422" x1="320.507" y1="36.1353" x2="353.492" y2="44.9313"/>
    <polyline style="fill: none; fill-opacity:0; stroke-width: 1; stroke: #004422" points="343.622,47.4739 354.573,45.2194 346.199,37.8116 "/>
  </g>
  <g>
    <rect style="fill: #ffffff" x="360" y="120" width="100" height="40"/>
    <rect style="fill: none; fill-opacity:0; stroke-width: 1; stroke: #002244" x="360" y="120" width="100" height="40"/>
  </g>
  <text font-size="12.8" style="fill: #003366;text-anchor:middle;font-family:monospace;font-style:normal;font-weight:normal" x="410" y="136.431">
    <tspan x="410" y="136.431">/var/lib/udge</tspan>
    <tspan x="410" y="152.431">/submissions/</tspan>
  </text>
  <g>
    <rect style="fill: #ffffff" x="200" y="80" width="120" height="40"/>
    <rect style="fill: none; fill-opacity:0; stroke-width: 1; stroke: #004422" x="200" y="80" width="120" height="40"/>
  </g>
  <text font-size="12.8" style="fill: #004422;text-anchor:middle;font-family:monospace;font-style:normal;font-weight:normal" x="260" y="104.431">
    <tspan x="260" y="104.431">*udge-submit*</tspan>
  </text>
  <g>
    <line style="fill: none; fill-opacity:0; stroke-width: 1; stroke: #004422" x1="320.507" y1="116.135" x2="353.492" y2="124.931"/>
    <polyline style="fill: none; fill-opacity:0; stroke-width: 1; stroke: #004422" points="343.622,127.474 354.573,125.219 346.199,117.812 "/>
  </g>
  <g>
    <rect style="fill: #ffffff" x="360" y="240" width="100" height="40"/>
    <rect style="fill: none; fill-opacity:0; stroke-width: 1; stroke: #002244" x="360" y="240" width="100" height="40"/>
  </g>
  <text font-size="12.8" style="fill: #003366;text-anchor:middle;font-family:monospace;font-style:normal;font-weight:normal" x="410" y="256.431">
    <tspan x="410" y="256.431">/run/udge</tspan>
    <tspan x="410" y="272.431">/slot/</tspan>
  </text>
  <g>
    <rect style="fill: #ffffff" x="360" y="360" width="100" height="40"/>
    <rect style="fill: none; fill-opacity:0; stroke-width: 1; stroke: #002244" x="360" y="360" width="100" height="40"/>
  </g>
  <text font-size="12.8" style="fill: #003366;text-anchor:middle;font-family:monospace;font-style:normal;font-weight:normal" x="410" y="376.431">
    <tspan x="410" y="376.431">/var/lib/udge</tspan>
    <tspan x="410" y="392.431">/results/</tspan>
  </text>
  <g>
    <rect style="fill: #ffffff" x="360" y="440" width="100" height="40"/>
    <rect style="fill: none; fill-opacity:0; stroke-width: 1; stroke: #002244" x="360" y="440" width="100" height="40"/>
  </g>
  <text font-size="12.8" style="fill: #003366;text-anchor:middle;font-family:monospace;font-style:normal;font-weight:normal" x="410" y="456.431">
    <tspan x="410" y="456.431">/var/lib/udge</tspan>
    <tspan x="410" y="472.431">/html/</tspan>
  </text>
  <g>
    <rect style="fill: #ffffff" x="40" y="120" width="120" height="40"/>
    <rect style="fill: none; fill-opacity:0; stroke-width: 1; stroke: #004422" x="40" y="120" width="120" height="40"/>
  </g>
  <text font-size="12.8" style="fill: #004422;text-anchor:middle;font-family:monospace;font-style:normal;font-weight:normal" x="100" y="136.431">
    <tspan x="100" y="136.431">cgi-bin/</tspan>
    <tspan x="100" y="152.431">*udge-submit*</tspan>
  </text>
  <g>
    <line style="fill: none; fill-opacity:0; stroke-width: 1; stroke: #004422" x1="160.488" y1="124.878" x2="193.462" y2="116.635"/>
    <polyline style="fill: none; fill-opacity:0; stroke-width: 1; stroke: #004422" points="186.058,123.639 194.546,116.363 183.632,113.938 "/>
  </g>
  <g>
    <rect style="fill: #ffffff" x="0" y="60" width="40" height="40"/>
    <rect style="fill: none; fill-opacity:0; stroke-width: 1; stroke: #442200" x="0" y="60" width="40" height="40"/>
  </g>
  <text font-size="12.8" style="fill: #442200;text-anchor:middle;font-family:sans-serif;font-style:normal;font-weight:normal" x="20" y="84.4312">
    <tspan x="20" y="84.4312">user</tspan>
  </text>
  <g>
    <line style="fill: none; fill-opacity:0; stroke-width: 1; stroke: #442200" x1="40.4883" y1="64.6338" x2="67.7455" y2="44.1909"/>
    <polyline style="fill: none; fill-opacity:0; stroke-width: 1; stroke: #442200" points="63.6399,53.52 68.6399,43.52 57.6399,45.52 "/>
  </g>
  <g>
    <line style="fill: none; fill-opacity:0; stroke-width: 1; stroke: #442200" x1="40.4883" y1="95.3662" x2="67.7455" y2="115.809"/>
    <polyline style="fill: none; fill-opacity:0; stroke-width: 1; stroke: #442200" points="57.6399,114.48 68.6399,116.48 63.6399,106.48 "/>
  </g>
  <g>
    <rect style="fill: #ffffff" x="0" y="320" width="40" height="40"/>
    <rect style="fill: none; fill-opacity:0; stroke-width: 1; stroke: #442200" x="0" y="320" width="40" height="40"/>
  </g>
  <text font-size="12.8" style="fill: #442200;text-anchor:middle;font-family:sans-serif;font-style:normal;font-weight:normal" x="20" y="344.431">
    <tspan x="20" y="344.431">cron</tspan>
  </text>
  <g>
    <rect style="fill: #ffffff" x="200" y="160" width="120" height="40"/>
    <rect style="fill: none; fill-opacity:0; stroke-width: 1; stroke: #004422" x="200" y="160" width="120" height="40"/>
  </g>
  <text font-size="12.8" style="fill: #004422;text-anchor:middle;font-family:monospace;font-style:normal;font-weight:normal" x="260" y="184.431">
    <tspan x="260" y="184.431">*udge-pick*</tspan>
  </text>
  <g>
    <line style="fill: none; fill-opacity:0; stroke-width: 1; stroke: #004422" x1="359.518" y1="153.462" x2="326.533" y2="162.258"/>
    <polyline style="fill: none; fill-opacity:0; stroke-width: 1; stroke: #004422" points="333.826,155.138 325.452,162.546 336.403,164.801 "/>
  </g>
  <g>
    <line style="fill: none; fill-opacity:0; stroke-width: 1; stroke: #004422" x1="298.416" y1="200.488" x2="366.082" y2="236.577"/>
    <polyline style="fill: none; fill-opacity:0; stroke-width: 1; stroke: #004422" points="355.892,236.809 367.069,237.103 360.598,227.986 "/>
  </g>
  <g>
    <rect style="fill: #ffffff" x="200" y="320" width="120" height="40"/>
    <rect style="fill: none; fill-opacity:0; stroke-width: 1; stroke: #004422" x="200" y="320" width="120" height="40"/>
  </g>
  <text font-size="12.8" style="fill: #004422;text-anchor:middle;font-family:monospace;font-style:normal;font-weight:normal" x="260" y="344.431">
    <tspan x="260" y="344.431">*udge-check*</tspan>
  </text>
  <g>
    <line style="fill: none; fill-opacity:0; stroke-width: 1; stroke: #004422" x1="371.584" y1="280.488" x2="303.918" y2="316.577"/>
    <polyline style="fill: none; fill-opacity:0; stroke-width: 1; stroke: #004422" points="309.402,307.986 302.931,317.103 314.108,316.809 "/>
  </g>
  <g>
    <line style="fill: none; fill-opacity:0; stroke-width: 1; stroke: #004422" x1="320.507" y1="356.135" x2="353.492" y2="364.931"/>
    <polyline style="fill: none; fill-opacity:0; stroke-width: 1; stroke: #004422" points="343.622,367.474 354.573,365.219 346.199,357.812 "/>
  </g>
  <g>
    <rect style="fill: #ffffff" x="360" y="520" width="100" height="40"/>
    <rect style="fill: none; fill-opacity:0; stroke-width: 1; stroke: #002244" x="360" y="520" width="100" height="40"/>
  </g>
  <text font-size="12.8" style="fill: #003366;text-anchor:middle;font-family:monospace;font-style:normal;font-weight:normal" x="410" y="536.431">
    <tspan x="410" y="536.431">/var/lib/udge</tspan>
    <tspan x="410" y="552.431">/problem/</tspan>
  </text>
  <g>
    <rect style="fill: #ffffff" x="500" y="300" width="100" height="40"/>
    <rect style="fill: none; fill-opacity:0; stroke-width: 1; stroke: #004422" x="500" y="300" width="100" height="40"/>
  </g>
  <text font-size="12.8" style="fill: #004422;text-anchor:middle;font-family:monospace;font-style:normal;font-weight:normal" x="550" y="324.431">
    <tspan x="550" y="324.431">*udge-backup*</tspan>
  </text>
  <g>
    <rect style="fill: #ffffff" x="360" y="600" width="100" height="40"/>
    <rect style="fill: none; fill-opacity:0; stroke-width: 1; stroke: #002244" x="360" y="600" width="100" height="40"/>
  </g>
  <text font-size="12.8" style="fill: #003366;text-anchor:middle;font-family:monospace;font-style:normal;font-weight:normal" x="410" y="616.431">
    <tspan x="410" y="616.431">/var/lib/udge</tspan>
    <tspan x="410" y="632.431">/backups/</tspan>
  </text>
  <g>
    <rect style="fill: #ffffff" x="200" y="400" width="120" height="40"/>
    <rect style="fill: none; fill-opacity:0; stroke-width: 1; stroke: #004422" x="200" y="400" width="120" height="40"/>
  </g>
  <text font-size="12.8" style="fill: #004422;text-anchor:middle;font-family:monospace;font-style:normal;font-weight:normal" x="260" y="416.431">
    <tspan x="260" y="416.431">*udge-update-</tspan>
    <tspan x="260" y="432.431">all-user-htmls*</tspan>
  </text>
  <g>
    <line style="fill: none; fill-opacity:0; stroke-width: 1; stroke: #004422" x1="359.518" y1="393.462" x2="326.533" y2="402.258"/>
    <polyline style="fill: none; fill-opacity:0; stroke-width: 1; stroke: #004422" points="333.826,395.138 325.452,402.546 336.403,404.801 "/>
  </g>
  <g>
    <line style="fill: none; fill-opacity:0; stroke-width: 1; stroke: #004422" x1="320.507" y1="436.135" x2="353.492" y2="444.931"/>
    <polyline style="fill: none; fill-opacity:0; stroke-width: 1; stroke: #004422" points="343.622,447.474 354.573,445.219 346.199,437.812 "/>
  </g>
  <g>
    <rect style="fill: #ffffff" x="200" y="480" width="120" height="40"/>
    <rect style="fill: none; fill-opacity:0; stroke-width: 1; stroke: #004422" x="200" y="480" width="120" height="40"/>
  </g>
  <text font-size="12.8" style="fill: #004422;text-anchor:middle;font-family:monospace;font-style:normal;font-weight:normal" x="260" y="496.431">
    <tspan x="260" y="496.431">udge-update-all</tspan>
    <tspan x="260" y="512.431">-problem-htmls*</tspan>
  </text>
  <g>
    <line style="fill: none; fill-opacity:0; stroke-width: 1; stroke: #004422" x1="359.518" y1="526.538" x2="326.533" y2="517.742"/>
    <polyline style="fill: none; fill-opacity:0; stroke-width: 1; stroke: #004422" points="336.403,515.199 325.452,517.454 333.826,524.862 "/>
  </g>
  <g>
    <line style="fill: none; fill-opacity:0; stroke-width: 1; stroke: #004422" x1="320.507" y1="483.865" x2="353.492" y2="475.069"/>
    <polyline style="fill: none; fill-opacity:0; stroke-width: 1; stroke: #004422" points="346.199,482.188 354.573,474.781 343.622,472.526 "/>
  </g>
  <g>
    <rect style="fill: #ffffff" x="0" y="480" width="60" height="40"/>
    <rect style="fill: none; fill-opacity:0; stroke-width: 1; stroke: #442200" x="0" y="480" width="60" height="40"/>
  </g>
  <text font-size="12.8" style="fill: #442200;text-anchor:middle;font-family:sans-serif;font-style:normal;font-weight:normal" x="30" y="504.431">
    <tspan x="30" y="504.431">admin</tspan>
  </text>
  <g>
    <line style="fill: none; fill-opacity:0; stroke-width: 1; stroke: #442200" x1="60.5048" y1="500" x2="193.274" y2="500"/>
    <polyline style="fill: none; fill-opacity:0; stroke-width: 1; stroke: #442200" points="184.392,505 194.392,500 184.392,495 "/>
  </g>
  <g>
    <rect style="fill: #ffffff" x="40" y="240" width="120" height="40"/>
    <rect style="fill: none; fill-opacity:0; stroke-width: 1; stroke: #004422" x="40" y="240" width="120" height="40"/>
  </g>
  <text font-size="12.8" style="fill: #004422;text-anchor:middle;font-family:monospace;font-style:normal;font-weight:normal" x="100" y="256.431">
    <tspan x="100" y="256.431">*udge-check-</tspan>
    <tspan x="100" y="272.431">-and-pick*</tspan>
  </text>
  <g>
    <line style="fill: none; fill-opacity:0; stroke-width: 1; stroke: #004422" x1="140.977" y1="239.512" x2="213.446" y2="203.277"/>
    <polyline style="fill: none; fill-opacity:0; stroke-width: 1; stroke: #004422" points="207.738,211.721 214.446,202.777 203.265,202.777 "/>
  </g>
  <g>
    <line style="fill: none; fill-opacity:0; stroke-width: 1; stroke: #004422" x1="140.977" y1="280.488" x2="213.446" y2="316.723"/>
    <polyline style="fill: none; fill-opacity:0; stroke-width: 1; stroke: #004422" points="203.265,317.223 214.446,317.223 207.738,308.279 "/>
  </g>
  <g>
    <line style="fill: none; fill-opacity:0; stroke-width: 1; stroke: #442200" x1="40.4883" y1="319.512" x2="75.1022" y2="284.898"/>
    <polyline style="fill: none; fill-opacity:0; stroke-width: 1; stroke: #442200" points="72.3572,294.714 75.8927,284.107 65.2861,287.643 "/>
  </g>
  <g>
    <rect style="fill: #ffffff" x="40" y="400" width="120" height="40"/>
    <rect style="fill: none; fill-opacity:0; stroke-width: 1; stroke: #004422" x="40" y="400" width="120" height="40"/>
  </g>
  <text font-size="12.8" style="fill: #004422;text-anchor:middle;font-family:monospace;font-style:normal;font-weight:normal" x="100" y="416.431">
    <tspan x="100" y="416.431">*udge-update-</tspan>
    <tspan x="100" y="432.431">-rank-html*</tspan>
  </text>
  <g>
    <path style="fill: none; fill-opacity:0; stroke-width: 1; stroke: #004422" d="M 359.558 380 C 309.558,380 224.29,378.57 166.411,397.863"/>
    <polyline style="fill: none; fill-opacity:0; stroke-width: 1; stroke: #004422" points="173.256,390.311 165.35,398.217 176.418,399.798 "/>
  </g>
  <g>
    <path style="fill: none; fill-opacity:0; stroke-width: 1; stroke: #004422" d="M 160.495 440.165 C 220.495,460.165 305.558,460 353.322,460"/>
    <polyline style="fill: none; fill-opacity:0; stroke-width: 1; stroke: #004422" points="344.44,465 354.44,460 344.44,455 "/>
  </g>
  <g>
    <path style="fill: none; fill-opacity:0; stroke-width: 1; stroke: #004422" d="M 460.502 540 C 510.502,540 550,364.508 550,346.744"/>
    <polyline style="fill: none; fill-opacity:0; stroke-width: 1; stroke: #004422" points="555,355.626 550,345.626 545,355.626 "/>
  </g>
  <g>
    <path style="fill: none; fill-opacity:0; stroke-width: 1; stroke: #004422" d="M 460.488 460 C 490.488,460 502.221,383.705 530.88,345.494"/>
    <polyline style="fill: none; fill-opacity:0; stroke-width: 1; stroke: #004422" points="529.551,355.599 531.551,344.599 521.551,349.599 "/>
  </g>
  <g>
    <path style="fill: none; fill-opacity:0; stroke-width: 1; stroke: #004422" d="M 460.502 140 C 490.502,140 508.003,236.006 537.003,294.006"/>
    <polyline style="fill: none; fill-opacity:0; stroke-width: 1; stroke: #004422" points="528.559,288.298 537.503,295.006 537.503,283.826 "/>
  </g>
  <g>
    <path style="fill: none; fill-opacity:0; stroke-width: 1; stroke: #004422" d="M 460.484 60 C 570.484,60 550,275.507 550,293.271"/>
    <polyline style="fill: none; fill-opacity:0; stroke-width: 1; stroke: #004422" points="545,284.389 550,294.389 555,284.389 "/>
  </g>
  <text font-size="4.51556" style="fill: #f8f8f8;text-anchor:middle;font-family:sans-serif;font-style:normal;font-weight:normal" x="100" y="55.9188">
    <tspan x="100" y="55.9188">title: How Udge works</tspan>
    <tspan x="100" y="61.5632">Copyright (C) 2020-2021 Rudy Matela</tspan>
    <tspan x="100" y="67.2077">Available under the GPLv2 license.</tspan>
  </text>
  <g>
    <path style="fill: none; fill-opacity:0; stroke-width: 1; stroke: #004422" d="M 565.379 340.505 C 595.379,380.505 574.475,620 466.711,620"/>
    <polyline style="fill: none; fill-opacity:0; stroke-width: 1; stroke: #004422" points="475.593,615 465.593,620 475.593,625 "/>
  </g>
  <g>
    <rect style="fill: #ffffff" x="200" y="600" width="120" height="40"/>
    <rect style="fill: none; fill-opacity:0; stroke-width: 1; stroke: #004422" x="200" y="600" width="120" height="40"/>
  </g>
  <text font-size="12.8" style="fill: #004422;text-anchor:middle;font-family:monospace;font-style:normal;font-weight:normal" x="260" y="616.431">
    <tspan x="260" y="616.431">(suggestion)</tspan>
    <tspan x="260" y="632.431">rsync</tspan>
  </text>
  <g>
    <line style="fill: none; fill-opacity:0; stroke-width: 1; stroke: #442200" x1="60.5048" y1="515.916" x2="215.277" y2="596.666"/>
    <polyline style="fill: none; fill-opacity:0; stroke-width: 1; stroke: #442200" points="205.089,596.991 216.268,597.183 209.715,588.125 "/>
  </g>
  <g>
    <line style="fill: none; fill-opacity:0; stroke-width: 1; stroke: #004422" x1="359.518" y1="620" x2="326.743" y2="620"/>
    <polyline style="fill: none; fill-opacity:0; stroke-width: 1; stroke: #004422" points="335.625,615 325.625,620 335.625,625 "/>
  </g>
  <g>
    <line style="fill: none; fill-opacity:0; stroke-width: 1; stroke: #004422" x1="199.496" y1="620" x2="66.2361" y2="620"/>
    <polyline style="fill: none; fill-opacity:0; stroke-width: 1; stroke: #004422" points="75.118,615 65.118,620 75.118,625 "/>
  </g>
  <g>
    <rect style="fill: #ffffff" x="0" y="600" width="60" height="40"/>
    <rect style="fill: none; fill-opacity:0; stroke-width: 1; stroke: #002244" x="0" y="600" width="60" height="40"/>
  </g>
  <text font-size="12.8" style="fill: #003366;text-anchor:middle;font-family:monospace;font-style:normal;font-weight:normal" x="30" y="624.431">
    <tspan x="30" y="624.431">/.../</tspan>
  </text>
  <g>
    <line style="fill: none; fill-opacity:0; stroke-width: 1; stroke: #442200" x1="40.4883" y1="360.488" x2="75.1022" y2="395.102"/>
    <polyline style="fill: none; fill-opacity:0; stroke-width: 1; stroke: #442200" points="65.2861,392.357 75.8927,395.893 72.3572,385.286 "/>
  </g>
  <g>
    <rect style="fill: #ffffff" x="200" y="240" width="120" height="40"/>
    <rect style="fill: none; fill-opacity:0; stroke-width: 1; stroke: #004422" x="200" y="240" width="120" height="40"/>
  </g>
  <text font-size="12.8" style="fill: #004422;text-anchor:middle;font-family:monospace;font-style:normal;font-weight:normal" x="260" y="256.431">
    <tspan x="260" y="256.431">*udge-</tspan>
    <tspan x="260" y="272.431">compile-and-run*</tspan>
  </text>
  <g>
    <line style="fill: none; fill-opacity:0; stroke-width: 1; stroke: #442200" x1="40.4492" y1="333.184" x2="193.579" y2="282.14"/>
    <polyline style="fill: none; fill-opacity:0; stroke-width: 1; stroke: #442200" points="186.734,289.693 194.639,281.787 183.571,280.206 "/>
  </g>
  <g>
    <path style="fill: none; fill-opacity:0; stroke-width: 1; stroke-dasharray: 5; stroke: #004422" d="M 359.497 60 C 89.4968,60 100,95.5017 100,113.266"/>
    <polyline style="fill: none; fill-opacity:0; stroke-width: 1; stroke: #004422" points="95,104.384 100,114.384 105,104.384 "/>
  </g>
  <text font-size="6.4008" style="fill: #442200;text-anchor:middle;font-family:sans-serif;font-style:normal;font-weight:normal" x="118.075" y="289.521">
    <tspan x="118.075" y="289.521"></tspan>
    <tspan x="118.075" y="297.522"></tspan>
    <tspan x="118.075" y="305.523"></tspan>
    <tspan x="118.075" y="313.524"></tspan>
    <tspan x="118.075" y="321.525">unpriviledged</tspan>
    <tspan x="118.075" y="329.526">slot user udge-N</tspan>
  </text>
  <g>
    <line style="fill: none; fill-opacity:0; stroke-width: 1; stroke: #004422" x1="320" y1="270" x2="353.764" y2="270"/>
    <polyline style="fill: none; fill-opacity:0; stroke-width: 1; stroke: #004422" points="344.882,275 354.882,270 344.882,265 "/>
  </g>
  <g>
    <line style="fill: none; fill-opacity:0; stroke-width: 1; stroke: #004422" x1="360" y1="250" x2="326.236" y2="250"/>
    <polyline style="fill: none; fill-opacity:0; stroke-width: 1; stroke: #004422" points="335.118,245 325.118,250 335.118,255 "/>
  </g>
  <g>
    <line style="fill: none; fill-opacity:0; stroke-width: 1; stroke: #442200" x1="40.4492" y1="346.816" x2="193.579" y2="397.86"/>
    <polyline style="fill: none; fill-opacity:0; stroke-width: 1; stroke: #442200" points="183.571,399.794 194.639,398.213 186.734,390.307 "/>
  </g>
  <g>
    <line style="fill: none; fill-opacity:0; stroke-width: 1; stroke: #442200" x1="580" y1="240" x2="559.873" y2="293.673"/>
    <polyline style="fill: none; fill-opacity:0; stroke-width: 1; stroke: #442200" points="558.31,283.601 559.48,294.72 567.673,287.112 "/>
  </g>
  <text font-size="12.8016" style="fill: #442200;text-anchor:middle;font-family:sans-serif;font-style:normal;font-weight:normal" x="580" y="234.432">
    <tspan x="580" y="234.432">...</tspan>
  </text>
  <g>
    <line style="fill: none; fill-opacity:0; stroke-width: 1; stroke: #442200" x1="20" y1="360" x2="20" y2="373.764"/>
    <polyline style="fill: none; fill-opacity:0; stroke-width: 1; stroke: #442200" points="15,364.882 20,374.882 25,364.882 "/>
  </g>
  <text font-size="12.8016" style="fill: #442200;text-anchor:middle;font-family:sans-serif;font-style:normal;font-weight:normal" x="20" y="384.432">
    <tspan x="20" y="384.432">...</tspan>
  </text>
</svg>
