<?xml version="1.0" encoding="UTF-8" standalone="no"?>
<!DOCTYPE svg PUBLIC "-//W3C//DTD SVG 1.0//EN" "http://www.w3.org/TR/2001/PR-SVG-20010719/DTD/svg10.dtd">
<svg width="95mm" height="55mm" viewBox="-1 -1 362 202" xmlns="http://www.w3.org/2000/svg" xmlns:xlink="http://www.w3.org/1999/xlink">
  <!-- Copyright (C) 2020-2023 Rudy Matela -->
  <title>Entity relations on Udge</title>
  <desc>Entity relations on Udge.  Copyright (C) 2020-2023 Rudy Matela</desc>
  <g>
    <rect style="fill: #ffffff" x="0" y="80" width="80" height="40"/>
    <rect style="fill: none; fill-opacity:0; stroke-width: 1; stroke: #000000" x="0" y="80" width="80" height="40"/>
  </g>
  <text font-size="12.8" style="fill: #000000;text-anchor:middle;font-family:sans-serif;font-style:normal;font-weight:normal" x="40" y="104.966">
    <tspan x="40" y="104.966">user</tspan>
  </text>
  <g>
    <rect style="fill: #ffffff" x="280" y="80" width="80" height="40"/>
    <rect style="fill: none; fill-opacity:0; stroke-width: 1; stroke: #000000" x="280" y="80" width="80" height="40"/>
  </g>
  <text font-size="12.8" style="fill: #000000;text-anchor:middle;font-family:sans-serif;font-style:normal;font-weight:normal" x="320" y="104.966">
    <tspan x="320" y="104.966">problem</tspan>
  </text>
  <g>
    <rect style="fill: #ffffff" x="140" y="160" width="80" height="40"/>
    <rect style="fill: none; fill-opacity:0; stroke-width: 1; stroke: #000000" x="140" y="160" width="80" height="40"/>
  </g>
  <text font-size="12.8" style="fill: #000000;text-anchor:middle;font-family:sans-serif;font-style:normal;font-weight:normal" x="180" y="184.966">
    <tspan x="180" y="184.966">result</tspan>
  </text>
  <g>
    <rect style="fill: #ffffff" x="140" y="0" width="80" height="40"/>
    <rect style="fill: none; fill-opacity:0; stroke-width: 1; stroke: #000000" x="140" y="0" width="80" height="40"/>
  </g>
  <text font-size="12.8" style="fill: #000000;text-anchor:middle;font-family:sans-serif;font-style:normal;font-weight:normal" x="180" y="24.9664">
    <tspan x="180" y="24.9664">submission</tspan>
  </text>
  <g>
    <rect style="fill: #ffffff" x="140" y="80" width="80" height="40"/>
    <rect style="fill: none; fill-opacity:0; stroke-width: 1; stroke: #000000" x="140" y="80" width="80" height="40"/>
  </g>
  <text font-size="12.8" style="fill: #000000;text-anchor:middle;font-family:sans-serif;font-style:normal;font-weight:normal" x="180" y="104.966">
    <tspan x="180" y="104.966">slots</tspan>
  </text>
  <g>
    <line style="fill: none; fill-opacity:0; stroke-width: 1; stroke: #000000" x1="80.4858" y1="100" x2="139.514" y2="100"/>
    <line style="fill: none; fill-opacity:0; stroke-width: 1; stroke: #000000" x1="129.514" y1="100" x2="139.514" y2="105"/>
    <line style="fill: none; fill-opacity:0; stroke-width: 1; stroke: #000000" x1="129.514" y1="100" x2="139.514" y2="95"/>
  </g>
  <g>
    <line style="fill: none; fill-opacity:0; stroke-width: 1; stroke: #000000" x1="280" y1="100" x2="220" y2="100"/>
    <line style="fill: none; fill-opacity:0; stroke-width: 1; stroke: #000000" x1="230" y1="100" x2="220" y2="95"/>
    <line style="fill: none; fill-opacity:0; stroke-width: 1; stroke: #000000" x1="230" y1="100" x2="220" y2="105"/>
  </g>
  <g>
    <path style="fill: none; fill-opacity:0; stroke-width: 1; stroke-linejoin: round; stroke: #000000" d="M 320,40 A 20,20 0 0 0 300,20"/>
    <line style="fill: none; fill-opacity:0; stroke-width: 1; stroke-linejoin: round; stroke: #000000" x1="320" y1="80" x2="320" y2="40"/>
    <line style="fill: none; fill-opacity:0; stroke-width: 1; stroke-linejoin: round; stroke: #000000" x1="300" y1="20" x2="220" y2="20"/>
    <line style="fill: none; fill-opacity:0; stroke-width: 1; stroke: #000000" x1="230" y1="20" x2="220" y2="15"/>
    <line style="fill: none; fill-opacity:0; stroke-width: 1; stroke: #000000" x1="230" y1="20" x2="220" y2="25"/>
  </g>
  <g>
    <path style="fill: none; fill-opacity:0; stroke-width: 1; stroke-linejoin: round; stroke: #000000" d="M 300,180 A 20,20 0 0 0 320,160"/>
    <line style="fill: none; fill-opacity:0; stroke-width: 1; stroke-linejoin: round; stroke: #000000" x1="320" y1="120.488" x2="320" y2="160"/>
    <line style="fill: none; fill-opacity:0; stroke-width: 1; stroke-linejoin: round; stroke: #000000" x1="300" y1="180" x2="220.486" y2="180"/>
    <line style="fill: none; fill-opacity:0; stroke-width: 1; stroke: #000000" x1="230.486" y1="180" x2="220.486" y2="175"/>
    <line style="fill: none; fill-opacity:0; stroke-width: 1; stroke: #000000" x1="230.486" y1="180" x2="220.486" y2="185"/>
  </g>
  <g>
    <path style="fill: none; fill-opacity:0; stroke-width: 1; stroke-linejoin: round; stroke: #000000" d="M 40,160 A 20,20 0 0 0 60,180"/>
    <line style="fill: none; fill-opacity:0; stroke-width: 1; stroke-linejoin: round; stroke: #000000" x1="40" y1="120.488" x2="40" y2="160"/>
    <line style="fill: none; fill-opacity:0; stroke-width: 1; stroke-linejoin: round; stroke: #000000" x1="60" y1="180" x2="140" y2="180"/>
    <line style="fill: none; fill-opacity:0; stroke-width: 1; stroke: #000000" x1="130" y1="180" x2="140" y2="185"/>
    <line style="fill: none; fill-opacity:0; stroke-width: 1; stroke: #000000" x1="130" y1="180" x2="140" y2="175"/>
  </g>
  <g>
    <path style="fill: none; fill-opacity:0; stroke-width: 1; stroke-linejoin: round; stroke: #000000" d="M 60,20 A 20,20 0 0 0 40,40"/>
    <line style="fill: none; fill-opacity:0; stroke-width: 1; stroke-linejoin: round; stroke: #000000" x1="40" y1="79.5117" x2="40" y2="40"/>
    <line style="fill: none; fill-opacity:0; stroke-width: 1; stroke-linejoin: round; stroke: #000000" x1="60" y1="20" x2="140" y2="20"/>
    <line style="fill: none; fill-opacity:0; stroke-width: 1; stroke: #000000" x1="130" y1="20" x2="140" y2="25"/>
    <line style="fill: none; fill-opacity:0; stroke-width: 1; stroke: #000000" x1="130" y1="20" x2="140" y2="15"/>
  </g>
  <g>
    <line style="fill: none; fill-opacity:0; stroke-width: 1; stroke: #000000" x1="180" y1="44" x2="180" y2="73.7639"/>
    <polyline style="fill: none; fill-opacity:0; stroke-width: 1; stroke: #000000" points="175,64.882 180,74.882 185,64.882 "/>
  </g>
  <g>
    <line style="fill: none; fill-opacity:0; stroke-width: 1; stroke: #000000" x1="180" y1="124" x2="180" y2="153.764"/>
    <polyline style="fill: none; fill-opacity:0; stroke-width: 1; stroke: #000000" points="175,144.882 180,154.882 185,144.882 "/>
  </g>
  <text font-size="6.4008" style="fill: #666666;text-anchor:start;font-family:sans-serif;font-style:normal;font-weight:normal" x="184" y="62.4835">
    <tspan x="184" y="62.4835">becomes</tspan>
  </text>
  <text font-size="6.4008" style="fill: #666666;text-anchor:start;font-family:sans-serif;font-style:normal;font-weight:normal" x="184" y="142.483">
    <tspan x="184" y="142.483">becomes</tspan>
  </text>
  <text font-size="2.25778" style="fill: #f8f8f8;text-anchor:middle;font-family:sans-serif;font-style:normal;font-weight:normal" x="100" y="58.0538">
    <tspan x="100" y="58.0538">title: Entity relations on Udge</tspan>
    <tspan x="100" y="60.876">Copyright (C) 2020-2023 Rudy Matela</tspan>
    <tspan x="100" y="63.6982">Available under the GPLv2 license.</tspan>
  </text>
</svg>
