<?xml version="1.0" encoding="UTF-8" standalone="no"?>
<!DOCTYPE svg PUBLIC "-//W3C//DTD SVG 1.0//EN" "http://www.w3.org/TR/2001/PR-SVG-20010719/DTD/svg10.dtd">
<svg width="155mm" height="185mm" viewBox="-1 -1 602 722" xmlns="http://www.w3.org/2000/svg" xmlns:xlink="http://www.w3.org/1999/xlink">
  <!-- Copyright (C) 2020-2021 Rudy Matela -->
  <title>How Udge works</title>
  <desc>How Udge works.  Copyright (C) 2020-2021 Rudy Matela</desc>
  <g>
    <line style="fill: none; fill-opacity:0; stroke-width: 1; stroke: #004422" x1="457.715" y1="359.551" x2="496.553" y2="342.906"/>
    <polyline style="fill: none; fill-opacity:0; stroke-width: 1; stroke: #004422" points="490.359,351 497.581,342.465 486.42,341.809 "/>
  </g>
  <g>
    <rect style="fill: #ffffff" x="360" y="40" width="100" height="40" rx="10" ry="10"/>
    <rect style="fill: none; fill-opacity:0; stroke-width: 1; stroke-linejoin: round; stroke: #002244" x="360" y="40" width="100" height="40" rx="10" ry="10"/>
  </g>
  <g>
    <rect style="fill: #ffffff" x="200" y="0" width="120" height="40"/>
    <rect style="fill: none; fill-opacity:0; stroke-width: 1; stroke: #004422" x="200" y="0" width="120" height="40"/>
  </g>
  <text font-size="12.8" style="fill: #004422;text-anchor:middle;font-family:monospace;font-style:normal;font-weight:normal" x="260" y="24.4313">
    <tspan x="260" y="24.4313">*udge-add-user*</tspan>
  </text>
  <text font-size="12.8" style="fill: #003366;text-anchor:middle;font-family:monospace;font-style:normal;font-weight:normal" x="410" y="56.4312">
    <tspan x="410" y="56.4312">/var/lib/udge</tspan>
    <tspan x="410" y="72.4312">/users/</tspan>
  </text>
  <g>
    <rect style="fill: #ffffff" x="40" y="0" width="120" height="40"/>
    <rect style="fill: none; fill-opacity:0; stroke-width: 1; stroke: #004422" x="40" y="0" width="120" height="40"/>
  </g>
  <text font-size="12.8" style="fill: #004422;text-anchor:middle;font-family:monospace;font-style:normal;font-weight:normal" x="100" y="16.4312">
    <tspan x="100" y="16.4312">cgi-bin/</tspan>
    <tspan x="100" y="32.4312">*udge-new-user*</tspan>
  </text>
  <g>
    <line style="fill: none; fill-opacity:0; stroke-width: 1; stroke: #004422" x1="160.488" y1="20" x2="193.276" y2="20"/>
    <polyline style="fill: none; fill-opacity:0; stroke-width: 1; stroke: #004422" points="184.394,25 194.394,20 184.394,15 "/>
  </g>
  <g>
    <line style="fill: none; fill-opacity:0; stroke-width: 1; stroke: #004422" x1="320.507" y1="36.1353" x2="353.492" y2="44.9313"/>
    <polyline style="fill: none; fill-opacity:0; stroke-width: 1; stroke: #004422" points="343.622,47.4739 354.573,45.2194 346.199,37.8116 "/>
  </g>
  <g>
    <rect style="fill: #ffffff" x="360" y="120" width="100" height="40" rx="10" ry="10"/>
    <rect style="fill: none; fill-opacity:0; stroke-width: 1; stroke-linejoin: round; stroke: #002244" x="360" y="120" width="100" height="40" rx="10" ry="10"/>
  </g>
  <text font-size="12.8" style="fill: #003366;text-anchor:middle;font-family:monospace;font-style:normal;font-weight:normal" x="410" y="136.431">
    <tspan x="410" y="136.431">/var/lib/udge</tspan>
    <tspan x="410" y="152.431">/submissions/</tspan>
  </text>
  <g>
    <rect style="fill: #ffffff" x="200" y="80" width="120" height="40"/>
    <rect style="fill: none; fill-opacity:0; stroke-width: 1; stroke: #004422" x="200" y="80" width="120" height="40"/>
  </g>
  <text font-size="12.8" style="fill: #004422;text-anchor:middle;font-family:monospace;font-style:normal;font-weight:normal" x="260" y="104.431">
    <tspan x="260" y="104.431">*udge-submit*</tspan>
  </text>
  <g>
    <line style="fill: none; fill-opacity:0; stroke-width: 1; stroke: #004422" x1="320.507" y1="116.135" x2="353.492" y2="124.931"/>
    <polyline style="fill: none; fill-opacity:0; stroke-width: 1; stroke: #004422" points="343.622,127.474 354.573,125.219 346.199,117.812 "/>
  </g>
  <g>
    <rect style="fill: #ffffff" x="360" y="240" width="100" height="40" rx="10" ry="10"/>
    <rect style="fill: none; fill-opacity:0; stroke-width: 1; stroke-linejoin: round; stroke: #002244" x="360" y="240" width="100" height="40" rx="10" ry="10"/>
  </g>
  <text font-size="12.8" style="fill: #003366;text-anchor:middle;font-family:monospace;font-style:normal;font-weight:normal" x="410" y="256.431">
    <tspan x="410" y="256.431">/run/udge</tspan>
    <tspan x="410" y="272.431">/slot/</tspan>
  </text>
  <g>
    <rect style="fill: #ffffff" x="360" y="360" width="100" height="40" rx="10" ry="10"/>
    <rect style="fill: none; fill-opacity:0; stroke-width: 1; stroke-linejoin: round; stroke: #002244" x="360" y="360" width="100" height="40" rx="10" ry="10"/>
  </g>
  <text font-size="12.8" style="fill: #003366;text-anchor:middle;font-family:monospace;font-style:normal;font-weight:normal" x="410" y="376.431">
    <tspan x="410" y="376.431">/var/lib/udge</tspan>
    <tspan x="410" y="392.431">/results/</tspan>
  </text>
  <g>
    <rect style="fill: #ffffff" x="360" y="520" width="100" height="40" rx="10" ry="10"/>
    <rect style="fill: none; fill-opacity:0; stroke-width: 1; stroke-linejoin: round; stroke: #002244" x="360" y="520" width="100" height="40" rx="10" ry="10"/>
  </g>
  <text font-size="12.8" style="fill: #003366;text-anchor:middle;font-family:monospace;font-style:normal;font-weight:normal" x="410" y="536.431">
    <tspan x="410" y="536.431">/var/lib/udge</tspan>
    <tspan x="410" y="552.431">/html/</tspan>
  </text>
  <g>
    <rect style="fill: #ffffff" x="40" y="120" width="120" height="40"/>
    <rect style="fill: none; fill-opacity:0; stroke-width: 1; stroke: #004422" x="40" y="120" width="120" height="40"/>
  </g>
  <text font-size="12.8" style="fill: #004422;text-anchor:middle;font-family:monospace;font-style:normal;font-weight:normal" x="100" y="136.431">
    <tspan x="100" y="136.431">cgi-bin/</tspan>
    <tspan x="100" y="152.431">*udge-submit*</tspan>
  </text>
  <g>
    <line style="fill: none; fill-opacity:0; stroke-width: 1; stroke: #004422" x1="160.488" y1="124.878" x2="193.462" y2="116.635"/>
    <polyline style="fill: none; fill-opacity:0; stroke-width: 1; stroke: #004422" points="186.058,123.639 194.546,116.363 183.632,113.938 "/>
  </g>
  <g>
    <rect style="fill: #ffffff" x="0" y="60" width="40" height="40" rx="20" ry="20"/>
    <rect style="fill: none; fill-opacity:0; stroke-width: 1; stroke-linejoin: round; stroke: #442200" x="0" y="60" width="40" height="40" rx="20" ry="20"/>
  </g>
  <text font-size="12.8" style="fill: #442200;text-anchor:middle;font-family:sans-serif;font-style:normal;font-weight:normal" x="20" y="84.4312">
    <tspan x="20" y="84.4312">user</tspan>
  </text>
  <g>
    <line style="fill: none; fill-opacity:0; stroke-width: 1; stroke-linejoin: round; stroke: #442200" x1="40.4883" y1="64.6338" x2="67.7455" y2="44.1909"/>
    <polyline style="fill: none; fill-opacity:0; stroke-width: 1; stroke: #442200" points="63.6399,53.52 68.6399,43.52 57.6399,45.52 "/>
  </g>
  <g>
    <line style="fill: none; fill-opacity:0; stroke-width: 1; stroke: #442200" x1="40.4883" y1="95.3662" x2="67.7455" y2="115.809"/>
    <polyline style="fill: none; fill-opacity:0; stroke-width: 1; stroke: #442200" points="57.6399,114.48 68.6399,116.48 63.6399,106.48 "/>
  </g>
  <g>
    <rect style="fill: #ffffff" x="0" y="320" width="40" height="40" rx="20" ry="20"/>
    <rect style="fill: none; fill-opacity:0; stroke-width: 1; stroke-linejoin: round; stroke: #442200" x="0" y="320" width="40" height="40" rx="20" ry="20"/>
  </g>
  <text font-size="12.8" style="fill: #442200;text-anchor:middle;font-family:sans-serif;font-style:normal;font-weight:normal" x="20" y="344.431">
    <tspan x="20" y="344.431">cron</tspan>
  </text>
  <g>
    <rect style="fill: #ffffff" x="200" y="160" width="120" height="40"/>
    <rect style="fill: none; fill-opacity:0; stroke-width: 1; stroke: #004422" x="200" y="160" width="120" height="40"/>
  </g>
  <text font-size="12.8" style="fill: #004422;text-anchor:middle;font-family:monospace;font-style:normal;font-weight:normal" x="260" y="184.431">
    <tspan x="260" y="184.431">*udge-pick*</tspan>
  </text>
  <g>
    <line style="fill: none; fill-opacity:0; stroke-width: 1; stroke: #004422" x1="359.518" y1="153.462" x2="326.533" y2="162.258"/>
    <polyline style="fill: none; fill-opacity:0; stroke-width: 1; stroke: #004422" points="333.826,155.138 325.452,162.546 336.403,164.801 "/>
  </g>
  <g>
    <line style="fill: none; fill-opacity:0; stroke-width: 1; stroke: #004422" x1="298.416" y1="200.488" x2="366.082" y2="236.577"/>
    <polyline style="fill: none; fill-opacity:0; stroke-width: 1; stroke: #004422" points="355.892,236.809 367.069,237.103 360.598,227.986 "/>
  </g>
  <g>
    <rect style="fill: #ffffff" x="200" y="320" width="120" height="40"/>
    <rect style="fill: none; fill-opacity:0; stroke-width: 1; stroke: #004422" x="200" y="320" width="120" height="40"/>
  </g>
  <text font-size="12.8" style="fill: #004422;text-anchor:middle;font-family:monospace;font-style:normal;font-weight:normal" x="260" y="344.431">
    <tspan x="260" y="344.431">*udge-check*</tspan>
  </text>
  <g>
    <line style="fill: none; fill-opacity:0; stroke-width: 1; stroke: #004422" x1="371.584" y1="280.488" x2="303.918" y2="316.577"/>
    <polyline style="fill: none; fill-opacity:0; stroke-width: 1; stroke: #004422" points="309.402,307.986 302.931,317.103 314.108,316.809 "/>
  </g>
  <g>
    <line style="fill: none; fill-opacity:0; stroke-width: 1; stroke: #004422" x1="320.507" y1="356.135" x2="353.492" y2="364.931"/>
    <polyline style="fill: none; fill-opacity:0; stroke-width: 1; stroke: #004422" points="343.622,367.474 354.573,365.219 346.199,357.812 "/>
  </g>
  <g>
    <rect style="fill: #ffffff" x="360" y="600" width="100" height="40" rx="10" ry="10"/>
    <rect style="fill: none; fill-opacity:0; stroke-width: 1; stroke-linejoin: round; stroke: #002244" x="360" y="600" width="100" height="40" rx="10" ry="10"/>
  </g>
  <text font-size="12.8" style="fill: #003366;text-anchor:middle;font-family:monospace;font-style:normal;font-weight:normal" x="410" y="616.431">
    <tspan x="410" y="616.431">/var/lib/udge</tspan>
    <tspan x="410" y="632.431">/problem/</tspan>
  </text>
  <g>
    <rect style="fill: #ffffff" x="500" y="300" width="100" height="40"/>
    <rect style="fill: none; fill-opacity:0; stroke-width: 1; stroke: #004422" x="500" y="300" width="100" height="40"/>
  </g>
  <text font-size="12.8" style="fill: #004422;text-anchor:middle;font-family:monospace;font-style:normal;font-weight:normal" x="550" y="324.431">
    <tspan x="550" y="324.431">*udge-backup*</tspan>
  </text>
  <g>
    <rect style="fill: #ffffff" x="360" y="680" width="100" height="40" rx="10" ry="10"/>
    <rect style="fill: none; fill-opacity:0; stroke-width: 1; stroke-linejoin: round; stroke: #002244" x="360" y="680" width="100" height="40" rx="10" ry="10"/>
  </g>
  <text font-size="12.8" style="fill: #003366;text-anchor:middle;font-family:monospace;font-style:normal;font-weight:normal" x="410" y="696.431">
    <tspan x="410" y="696.431">/var/lib/udge</tspan>
    <tspan x="410" y="712.431">/backups/</tspan>
  </text>
  <g>
    <rect style="fill: #ffffff" x="200" y="480" width="120" height="40"/>
    <rect style="fill: none; fill-opacity:0; stroke-width: 1; stroke: #004422" x="200" y="480" width="120" height="40"/>
  </g>
  <text font-size="12.8" style="fill: #004422;text-anchor:middle;font-family:monospace;font-style:normal;font-weight:normal" x="260" y="496.431">
    <tspan x="260" y="496.431">*udge-update-</tspan>
    <tspan x="260" y="512.431">all-user-htmls*</tspan>
  </text>
  <g>
    <line style="fill: none; fill-opacity:0; stroke-width: 1; stroke: #004422" x1="359.518" y1="393.462" x2="326.533" y2="402.258"/>
    <polyline style="fill: none; fill-opacity:0; stroke-width: 1; stroke: #004422" points="333.826,395.138 325.452,402.546 336.403,404.801 "/>
  </g>
  <g>
    <line style="fill: none; fill-opacity:0; stroke-width: 1; stroke: #004422" x1="320.507" y1="516.135" x2="353.492" y2="524.931"/>
    <polyline style="fill: none; fill-opacity:0; stroke-width: 1; stroke: #004422" points="343.622,527.474 354.573,525.219 346.199,517.812 "/>
  </g>
  <g>
    <rect style="fill: #ffffff" x="200" y="560" width="120" height="40"/>
    <rect style="fill: none; fill-opacity:0; stroke-width: 1; stroke: #004422" x="200" y="560" width="120" height="40"/>
  </g>
  <text font-size="12.8" style="fill: #004422;text-anchor:middle;font-family:monospace;font-style:normal;font-weight:normal" x="260" y="576.431">
    <tspan x="260" y="576.431">udge-update-all</tspan>
    <tspan x="260" y="592.431">-problem-htmls*</tspan>
  </text>
  <g>
    <line style="fill: none; fill-opacity:0; stroke-width: 1; stroke: #004422" x1="359.518" y1="606.538" x2="326.533" y2="597.742"/>
    <polyline style="fill: none; fill-opacity:0; stroke-width: 1; stroke: #004422" points="336.403,595.199 325.452,597.454 333.826,604.862 "/>
  </g>
  <g>
    <line style="fill: none; fill-opacity:0; stroke-width: 1; stroke: #004422" x1="320.507" y1="563.865" x2="353.492" y2="555.069"/>
    <polyline style="fill: none; fill-opacity:0; stroke-width: 1; stroke: #004422" points="346.199,562.188 354.573,554.781 343.622,552.526 "/>
  </g>
  <g>
    <rect style="fill: #ffffff" x="0" y="560" width="60" height="40" rx="20" ry="20"/>
    <rect style="fill: none; fill-opacity:0; stroke-width: 1; stroke-linejoin: round; stroke: #442200" x="0" y="560" width="60" height="40" rx="20" ry="20"/>
  </g>
  <text font-size="12.8" style="fill: #442200;text-anchor:middle;font-family:sans-serif;font-style:normal;font-weight:normal" x="30" y="584.431">
    <tspan x="30" y="584.431">admin</tspan>
  </text>
  <g>
    <line style="fill: none; fill-opacity:0; stroke-width: 1; stroke-linejoin: round; stroke: #442200" x1="60.5048" y1="580" x2="193.274" y2="580"/>
    <polyline style="fill: none; fill-opacity:0; stroke-width: 1; stroke: #442200" points="184.392,585 194.392,580 184.392,575 "/>
  </g>
  <g>
    <rect style="fill: #ffffff" x="40" y="240" width="120" height="40"/>
    <rect style="fill: none; fill-opacity:0; stroke-width: 1; stroke: #004422" x="40" y="240" width="120" height="40"/>
  </g>
  <text font-size="12.8" style="fill: #004422;text-anchor:middle;font-family:monospace;font-style:normal;font-weight:normal" x="100" y="256.431">
    <tspan x="100" y="256.431">*udge-check-</tspan>
    <tspan x="100" y="272.431">-and-pick*</tspan>
  </text>
  <g>
    <line style="fill: none; fill-opacity:0; stroke-width: 1; stroke: #004422" x1="140.977" y1="239.512" x2="213.446" y2="203.277"/>
    <polyline style="fill: none; fill-opacity:0; stroke-width: 1; stroke: #004422" points="207.738,211.721 214.446,202.777 203.265,202.777 "/>
  </g>
  <g>
    <line style="fill: none; fill-opacity:0; stroke-width: 1; stroke: #004422" x1="140.977" y1="280.488" x2="213.446" y2="316.723"/>
    <polyline style="fill: none; fill-opacity:0; stroke-width: 1; stroke: #004422" points="203.265,317.223 214.446,317.223 207.738,308.279 "/>
  </g>
  <g>
    <line style="fill: none; fill-opacity:0; stroke-width: 1; stroke: #442200" x1="40.4883" y1="319.512" x2="75.1022" y2="284.898"/>
    <polyline style="fill: none; fill-opacity:0; stroke-width: 1; stroke: #442200" points="72.3572,294.714 75.8927,284.107 65.2861,287.643 "/>
  </g>
  <g>
    <rect style="fill: #ffffff" x="40" y="480" width="120" height="40"/>
    <rect style="fill: none; fill-opacity:0; stroke-width: 1; stroke: #004422" x="40" y="480" width="120" height="40"/>
  </g>
  <text font-size="12.8" style="fill: #004422;text-anchor:middle;font-family:monospace;font-style:normal;font-weight:normal" x="100" y="496.431">
    <tspan x="100" y="496.431">*udge-update-</tspan>
    <tspan x="100" y="512.431">-rank-html*</tspan>
  </text>
  <g>
    <path style="fill: none; fill-opacity:0; stroke-width: 1; stroke: #004422" d="M 359.501 380 C 89.5006,380 100,395.498 100,473.262"/>
    <polyline style="fill: none; fill-opacity:0; stroke-width: 1; stroke: #004422" points="95,464.38 100,474.38 105,464.38 "/>
  </g>
  <g>
    <path style="fill: none; fill-opacity:0; stroke-width: 1; stroke: #004422" d="M 160.495 520.165 C 220.495,540.165 305.558,540 353.322,540"/>
    <polyline style="fill: none; fill-opacity:0; stroke-width: 1; stroke: #004422" points="344.44,545 354.44,540 344.44,535 "/>
  </g>
  <g>
    <path style="fill: none; fill-opacity:0; stroke-width: 1; stroke: #004422" d="M 460.475 620 C 510.475,620 550,364.499 550,346.735"/>
    <polyline style="fill: none; fill-opacity:0; stroke-width: 1; stroke: #004422" points="555,355.617 550,345.617 545,355.617 "/>
  </g>
  <g>
    <path style="fill: none; fill-opacity:0; stroke-width: 1; stroke: #004422" d="M 460.502 540 C 490.502,540 502.22,383.706 530.879,345.495"/>
    <polyline style="fill: none; fill-opacity:0; stroke-width: 1; stroke: #004422" points="529.55,355.601 531.55,344.601 521.55,349.601 "/>
  </g>
  <g>
    <path style="fill: none; fill-opacity:0; stroke-width: 1; stroke: #004422" d="M 460.502 140 C 490.502,140 508.003,236.006 537.003,294.006"/>
    <polyline style="fill: none; fill-opacity:0; stroke-width: 1; stroke: #004422" points="528.559,288.298 537.503,295.006 537.503,283.826 "/>
  </g>
  <g>
    <path style="fill: none; fill-opacity:0; stroke-width: 1; stroke: #004422" d="M 460.484 60 C 570.484,60 550,275.507 550,293.271"/>
    <polyline style="fill: none; fill-opacity:0; stroke-width: 1; stroke: #004422" points="545,284.389 550,294.389 555,284.389 "/>
  </g>
  <text font-size="4.51556" style="fill: #f8f8f8;text-anchor:middle;font-family:sans-serif;font-style:normal;font-weight:normal" x="100" y="55.9188">
    <tspan x="100" y="55.9188">title: How Udge works</tspan>
    <tspan x="100" y="61.5632">Copyright (C) 2020-2021 Rudy Matela</tspan>
    <tspan x="100" y="67.2077">Available under the GPLv2 license.</tspan>
  </text>
  <g>
    <path style="fill: none; fill-opacity:0; stroke-width: 1; stroke: #004422" d="M 565.372 340.496 C 595.372,380.496 574.504,700 466.74,700"/>
    <polyline style="fill: none; fill-opacity:0; stroke-width: 1; stroke: #004422" points="475.622,695 465.622,700 475.622,705 "/>
  </g>
  <g>
    <rect style="fill: #ffffff" x="200" y="680" width="120" height="40"/>
    <rect style="fill: none; fill-opacity:0; stroke-width: 1; stroke: #004422" x="200" y="680" width="120" height="40"/>
  </g>
  <text font-size="12.8" style="fill: #004422;text-anchor:middle;font-family:monospace;font-style:normal;font-weight:normal" x="260" y="696.431">
    <tspan x="260" y="696.431">(suggestion)</tspan>
    <tspan x="260" y="712.431">rsync</tspan>
  </text>
  <g>
    <line style="fill: none; fill-opacity:0; stroke-width: 1; stroke: #442200" x1="60.5048" y1="595.916" x2="215.277" y2="676.666"/>
    <polyline style="fill: none; fill-opacity:0; stroke-width: 1; stroke: #442200" points="205.089,676.991 216.268,677.183 209.715,668.125 "/>
  </g>
  <g>
    <line style="fill: none; fill-opacity:0; stroke-width: 1; stroke: #004422" x1="359.518" y1="700" x2="326.743" y2="700"/>
    <polyline style="fill: none; fill-opacity:0; stroke-width: 1; stroke: #004422" points="335.625,695 325.625,700 335.625,705 "/>
  </g>
  <g>
    <line style="fill: none; fill-opacity:0; stroke-width: 1; stroke: #004422" x1="199.496" y1="700" x2="66.2361" y2="700"/>
    <polyline style="fill: none; fill-opacity:0; stroke-width: 1; stroke: #004422" points="75.118,695 65.118,700 75.118,705 "/>
  </g>
  <g>
    <rect style="fill: #ffffff" x="0" y="680" width="60" height="40" rx="10" ry="10"/>
    <rect style="fill: none; fill-opacity:0; stroke-width: 1; stroke-linejoin: round; stroke: #002244" x="0" y="680" width="60" height="40" rx="10" ry="10"/>
  </g>
  <text font-size="12.8" style="fill: #003366;text-anchor:middle;font-family:monospace;font-style:normal;font-weight:normal" x="30" y="704.431">
    <tspan x="30" y="704.431">/.../</tspan>
  </text>
  <g>
    <line style="fill: none; fill-opacity:0; stroke-width: 1; stroke-linejoin: round; stroke: #442200" x1="30.2441" y1="360.488" x2="86.967" y2="473.934"/>
    <polyline style="fill: none; fill-opacity:0; stroke-width: 1; stroke: #442200" points="78.5227,468.226 87.467,474.934 87.467,463.754 "/>
  </g>
  <g>
    <rect style="fill: #ffffff" x="200" y="240" width="120" height="40"/>
    <rect style="fill: none; fill-opacity:0; stroke-width: 1; stroke: #004422" x="200" y="240" width="120" height="40"/>
  </g>
  <text font-size="12.8" style="fill: #004422;text-anchor:middle;font-family:monospace;font-style:normal;font-weight:normal" x="260" y="256.431">
    <tspan x="260" y="256.431">*udge-</tspan>
    <tspan x="260" y="272.431">compile-and-run*</tspan>
  </text>
  <g>
    <line style="fill: none; fill-opacity:0; stroke-width: 1; stroke: #442200" x1="40.4492" y1="333.184" x2="193.579" y2="282.14"/>
    <polyline style="fill: none; fill-opacity:0; stroke-width: 1; stroke: #442200" points="186.734,289.693 194.639,281.787 183.571,280.206 "/>
  </g>
  <g>
    <path style="fill: none; fill-opacity:0; stroke-width: 1; stroke-dasharray: 5; stroke: #004422" d="M 359.497 60 C 89.4968,60 100,95.5017 100,113.266"/>
    <polyline style="fill: none; fill-opacity:0; stroke-width: 1; stroke: #004422" points="95,104.384 100,114.384 105,104.384 "/>
  </g>
  <text font-size="6.4008" style="fill: #442200;text-anchor:middle;font-family:sans-serif;font-style:normal;font-weight:normal" x="118.075" y="289.521">
    <tspan x="118.075" y="289.521"></tspan>
    <tspan x="118.075" y="297.522"></tspan>
    <tspan x="118.075" y="305.523"></tspan>
    <tspan x="118.075" y="313.524"></tspan>
    <tspan x="118.075" y="321.525">unpriviledged</tspan>
    <tspan x="118.075" y="329.526">slot user udge-N</tspan>
  </text>
  <g>
    <line style="fill: none; fill-opacity:0; stroke-width: 1; stroke: #004422" x1="320" y1="270" x2="353.764" y2="270"/>
    <polyline style="fill: none; fill-opacity:0; stroke-width: 1; stroke: #004422" points="344.882,275 354.882,270 344.882,265 "/>
  </g>
  <g>
    <line style="fill: none; fill-opacity:0; stroke-width: 1; stroke: #004422" x1="360" y1="250" x2="326.236" y2="250"/>
    <polyline style="fill: none; fill-opacity:0; stroke-width: 1; stroke: #004422" points="335.118,245 325.118,250 335.118,255 "/>
  </g>
  <g>
    <line style="fill: none; fill-opacity:0; stroke-width: 1; stroke: #442200" x1="580" y1="240" x2="559.873" y2="293.673"/>
    <polyline style="fill: none; fill-opacity:0; stroke-width: 1; stroke: #442200" points="558.31,283.601 559.48,294.72 567.673,287.112 "/>
  </g>
  <text font-size="12.8016" style="fill: #442200;text-anchor:middle;font-family:sans-serif;font-style:normal;font-weight:normal" x="580" y="234.432">
    <tspan x="580" y="234.432">...</tspan>
  </text>
  <g>
    <line style="fill: none; fill-opacity:0; stroke-width: 1; stroke: #442200" x1="20" y1="360" x2="20" y2="413.764"/>
    <polyline style="fill: none; fill-opacity:0; stroke-width: 1; stroke: #442200" points="15,404.882 20,414.882 25,404.882 "/>
  </g>
  <text font-size="12.8016" style="fill: #442200;text-anchor:middle;font-family:sans-serif;font-style:normal;font-weight:normal" x="20" y="424.432">
    <tspan x="20" y="424.432">...</tspan>
  </text>
  <g>
    <rect style="fill: #ffffff" x="200" y="400" width="120" height="40"/>
    <rect style="fill: none; fill-opacity:0; stroke-width: 1; stroke: #004422" x="200" y="400" width="120" height="40"/>
  </g>
  <text font-size="12.8" style="fill: #004422;text-anchor:middle;font-family:monospace;font-style:normal;font-weight:normal" x="260" y="416.431">
    <tspan x="260" y="416.431">*udge-</tspan>
    <tspan x="260" y="432.431">-user-stats*</tspan>
  </text>
  <g>
    <line style="fill: none; fill-opacity:0; stroke-width: 1; stroke: #004422" x1="260" y1="440.488" x2="260" y2="473.276"/>
    <polyline style="fill: none; fill-opacity:0; stroke-width: 1; stroke: #004422" points="255,464.394 260,474.394 265,464.394 "/>
  </g>
  <g>
    <path style="fill: none; fill-opacity:0; stroke-width: 1; stroke: #004422" d="M 89.7568 280.486 C 49.7568,360.486 135.703,458.568 193.582,477.861"/>
    <polyline style="fill: none; fill-opacity:0; stroke-width: 1; stroke: #004422" points="183.574,479.795 194.642,478.214 186.737,470.308 "/>
  </g>
  <text font-size="6.4008" style="fill: #442200;text-anchor:middle;font-family:sans-serif;font-style:normal;font-weight:normal" x="58.5858" y="287.628">
    <tspan x="58.5858" y="287.628">/1min</tspan>
    <tspan x="58.5858" y="295.629"></tspan>
    <tspan x="58.5858" y="303.63"></tspan>
    <tspan x="58.5858" y="311.631"></tspan>
    <tspan x="58.5858" y="319.632"></tspan>
  </text>
  <text font-size="6.4008" style="fill: #442200;text-anchor:middle;font-family:sans-serif;font-style:normal;font-weight:normal" x="59.1056" y="396.425">
    <tspan x="59.1056" y="396.425"></tspan>
    <tspan x="59.1056" y="404.426"></tspan>
    <tspan x="59.1056" y="412.427"></tspan>
    <tspan x="59.1056" y="420.428"></tspan>
    <tspan x="59.1056" y="428.429"></tspan>
    <tspan x="59.1056" y="436.43"></tspan>
    <tspan x="59.1056" y="444.431">/2min</tspan>
  </text>
  <text font-size="6.4008" style="fill: #442200;text-anchor:middle;font-family:sans-serif;font-style:normal;font-weight:normal" x="569.544" y="242.096">
    <tspan x="569.544" y="242.096"></tspan>
    <tspan x="569.544" y="250.097"></tspan>
    <tspan x="569.544" y="258.098"></tspan>
    <tspan x="569.544" y="266.099"></tspan>
    <tspan x="569.544" y="274.1"></tspan>
    <tspan x="569.544" y="282.101"></tspan>
    <tspan x="569.544" y="290.102"></tspan>
    <tspan x="569.544" y="298.103">/1d</tspan>
  </text>
  <g>
    <rect style="fill: #ffffff" x="90" y="190" width="60" height="20"/>
    <rect style="fill: none; fill-opacity:0; stroke-width: 1; stroke-dasharray: 2; stroke: #004422" x="90" y="190" width="60" height="20"/>
  </g>
  <text font-size="6.4008" style="fill: #004422;text-anchor:middle;font-family:monospace;font-style:normal;font-weight:normal" x="120" y="198.215">
    <tspan x="120" y="198.215">*udge-pick-</tspan>
    <tspan x="120" y="206.216">-and-judge*</tspan>
  </text>
  <g>
    <rect style="fill: #ffffff" x="0" y="190" width="40" height="20" rx="20" ry="20"/>
    <rect style="fill: none; fill-opacity:0; stroke-width: 1; stroke-linejoin: round; stroke-dasharray: 2; stroke: #888800" x="0" y="190" width="40" height="20" rx="20" ry="20"/>
  </g>
  <text font-size="6.4008" style="fill: #888800;text-anchor:middle;font-family:sans-serif;font-style:normal;font-weight:normal" x="20" y="202.216">
    <tspan x="20" y="202.216">developer</tspan>
  </text>
  <g>
    <line style="fill: none; fill-opacity:0; stroke-width: 1; stroke-linejoin: round; stroke-dasharray: 2; stroke: #004422" x1="150.497" y1="195.643" x2="193.32" y2="189.526"/>
    <polyline style="fill: none; fill-opacity:0; stroke-width: 1; stroke: #004422" points="189.831,192.55 194.427,189.368 189.124,187.6 "/>
  </g>
  <g>
    <line style="fill: none; fill-opacity:0; stroke-width: 1; stroke-dasharray: 2; stroke: #004422" x1="144.507" y1="210.503" x2="206.553" y2="237.094"/>
    <polyline style="fill: none; fill-opacity:0; stroke-width: 1; stroke: #004422" points="202,237.863 207.581,237.535 203.97,233.267 "/>
  </g>
  <g>
    <line style="fill: none; fill-opacity:0; stroke-width: 1; stroke-dasharray: 2; stroke: #004422" x1="130.502" y1="210.502" x2="235.219" y2="315.219"/>
    <polyline style="fill: none; fill-opacity:0; stroke-width: 1; stroke: #004422" points="230.707,314.242 236.01,316.01 234.242,310.707 "/>
  </g>
  <g>
    <line style="fill: none; fill-opacity:0; stroke-width: 1; stroke-dasharray: 2; stroke: #888800" x1="40.4102" y1="200" x2="83.2708" y2="200"/>
    <polyline style="fill: none; fill-opacity:0; stroke-width: 1; stroke: #888800" points="79.3888,202.5 84.3888,200 79.3888,197.5 "/>
  </g>
</svg>
